# xmcd CD database file
#
# Track frame offsets:
#	150
#	18938
#	33465
#	51187
#	70907
#	88515
#	106237
#	123287
#	144907
#	161892
#	178965
#	195120
#
# Disc length: 2798 seconds
#
# Revision: 0
# Processed by: cddbd v1.5.1PL0 Copyright (c) Steve Scherf et al.
# Submitted via: CDex 1.51
#
DISCID=9a0aec0c
DTITLE=B'z - GREEN
DYEAR=1900
DGENRE=Rock
TTITLE0=stay green
TTITLE1=熱き鼓動の果て
TTITLE2=Warp
TTITLE3=SIGNAL
TTITLE4=SURFIN' 3000GTR
TTITLE5=Blme Sunshine
TTITLE6=ultra soul
TTITLE7=美しき世界
TTITLE8=Everlasting
TTITLE9=FOREVER MINE
TTITLE10=The Spiral
TTITLE11=GO FIGHT WIN
EXTD=
EXTT0=
EXTT1=
EXTT2=
EXTT3=
EXTT4=
EXTT5=
EXTT6=
EXTT7=
EXTT8=
EXTT9=
EXTT10=
EXTT11=
PLAYORDER=
